<svg width="34" height="34" viewBox="0 0 34 34" fill="none" xmlns="http://www.w3.org/2000/svg">
<path d="M17 31.1808C24.824 31.1808 31.1666 24.8382 31.1666 17.0142C31.1666 9.19014 24.824 2.8475 17 2.8475C9.17595 2.8475 2.83331 9.19014 2.83331 17.0142C2.83331 24.8382 9.17595 31.1808 17 31.1808Z" fill="#D9D9D9"/>
<path d="M17 9.83167C14.0675 9.83167 11.6875 12.2117 11.6875 15.1442C11.6875 18.02 13.94 20.3575 16.9292 20.4425C16.9717 20.4425 17.0283 20.4425 17.0567 20.4425C17.085 20.4425 17.1275 20.4425 17.1558 20.4425C17.17 20.4425 17.1842 20.4425 17.1842 20.4425C20.0458 20.3433 22.2983 18.02 22.3125 15.1442C22.3125 12.2117 19.9325 9.83167 17 9.83167Z" fill="#151515"/>
<path d="M26.605 27.4267C24.0834 29.75 20.7117 31.1808 17 31.1808C13.2884 31.1808 9.91669 29.75 7.39502 27.4267C7.73502 26.1375 8.65585 24.9617 10.0017 24.055C13.8692 21.4767 20.1592 21.4767 23.9984 24.055C25.3584 24.9617 26.265 26.1375 26.605 27.4267Z" fill="#151515"/>
</svg>
