<svg width="28" height="31" viewBox="0 0 28 31" fill="none" xmlns="http://www.w3.org/2000/svg">
<path d="M0 27.125V11.375C0 10.8208 0.12425 10.2958 0.37275 9.8C0.62125 9.30417 0.963667 8.89583 1.4 8.575L11.9 0.7C12.5125 0.233333 13.2125 0 14 0C14.7875 0 15.4875 0.233333 16.1 0.7L26.6 8.575C27.0375 8.89583 27.3805 9.30417 27.629 9.8C27.8775 10.2958 28.0012 10.8208 28 11.375V27.125C28 28.0875 27.657 28.9118 26.971 29.5978C26.285 30.2838 25.4613 30.6262 24.5 30.625H19.25C18.7542 30.625 18.3388 30.457 18.004 30.121C17.6692 29.785 17.5012 29.3697 17.5 28.875V20.125C17.5 19.6292 17.332 19.2138 16.996 18.879C16.66 18.5442 16.2447 18.3762 15.75 18.375H12.25C11.7542 18.375 11.3388 18.543 11.004 18.879C10.6692 19.215 10.5012 19.6303 10.5 20.125V28.875C10.5 29.3708 10.332 29.7867 9.996 30.1227C9.66 30.4587 9.24467 30.6262 8.75 30.625H3.5C2.5375 30.625 1.71383 30.2826 1.029 29.5978C0.344166 28.9129 0.00116667 28.0887 0 27.125Z" fill="black"/>
</svg>
