<svg width="32" height="32" viewBox="0 0 32 32" fill="none" xmlns="http://www.w3.org/2000/svg">
<path fill-rule="evenodd" clip-rule="evenodd" d="M15.8333 0C7.08859 0 1.90735e-06 7.08858 1.90735e-06 15.8333C1.90735e-06 24.5781 7.08859 31.6667 15.8333 31.6667C24.5781 31.6667 31.6667 24.5781 31.6667 15.8333C31.6667 7.08858 24.5781 0 15.8333 0ZM10.2917 11.875C10.2917 11.1473 10.435 10.4266 10.7135 9.7543C10.992 9.08195 11.4002 8.47104 11.9148 7.95645C12.4294 7.44186 13.0403 7.03366 13.7126 6.75517C14.385 6.47667 15.1056 6.33333 15.8333 6.33333C16.5611 6.33333 17.2817 6.47667 17.954 6.75517C18.6264 7.03366 19.2373 7.44186 19.7519 7.95645C20.2665 8.47104 20.6747 9.08195 20.9532 9.7543C21.2317 10.4266 21.375 11.1473 21.375 11.875C21.375 13.3447 20.7911 14.7543 19.7519 15.7935C18.7126 16.8328 17.3031 17.4167 15.8333 17.4167C14.3636 17.4167 12.954 16.8328 11.9148 15.7935C10.8755 14.7543 10.2917 13.3447 10.2917 11.875ZM25.7418 23.7247C24.5562 25.2151 23.0494 26.4187 21.3337 27.2455C19.6181 28.0724 17.7379 28.5012 15.8333 28.5C13.9288 28.5012 12.0486 28.0724 10.3329 27.2455C8.61728 26.4187 7.11045 25.2151 5.92484 23.7247C8.49142 21.8832 11.9938 20.5833 15.8333 20.5833C19.6729 20.5833 23.1752 21.8832 25.7418 23.7247Z" fill="black"/>
</svg>
