<svg width="92" height="15" viewBox="0 0 92 15" fill="none" xmlns="http://www.w3.org/2000/svg">
<path d="M1.56787 10.3721C2.09359 10.6689 2.62549 10.938 3.16357 11.1792C3.70785 11.4142 4.27067 11.6152 4.85205 11.7822C5.43343 11.943 6.04264 12.0667 6.67969 12.1533C7.32292 12.2399 8.00635 12.2832 8.72998 12.2832C9.60205 12.2832 10.3442 12.2275 10.9565 12.1162C11.5688 11.9987 12.0667 11.841 12.4502 11.6431C12.8398 11.439 13.1213 11.1978 13.2944 10.9194C13.4738 10.6411 13.5635 10.3381 13.5635 10.0103C13.5635 9.48454 13.3439 9.07015 12.9048 8.76709C12.4657 8.45785 11.7884 8.30322 10.873 8.30322C10.471 8.30322 10.0474 8.33105 9.60205 8.38672C9.15674 8.4362 8.70524 8.49186 8.24756 8.55371C7.79606 8.61556 7.34766 8.67432 6.90234 8.72998C6.46322 8.77946 6.04883 8.8042 5.65918 8.8042C5.00977 8.8042 4.38509 8.7207 3.78516 8.55371C3.19141 8.38672 2.6626 8.13623 2.19873 7.80225C1.74105 7.46826 1.37614 7.05078 1.104 6.5498C0.831868 6.04883 0.695801 5.46436 0.695801 4.79639C0.695801 4.40055 0.748372 4.00781 0.853516 3.61816C0.964844 3.22852 1.13802 2.85742 1.37305 2.50488C1.61426 2.14616 1.9235 1.81527 2.30078 1.51221C2.67806 1.20296 3.13265 0.937012 3.66455 0.714355C4.20264 0.491699 4.82113 0.318522 5.52002 0.194824C6.2251 0.0649414 7.02604 0 7.92285 0C8.57227 0 9.22477 0.0371094 9.88037 0.111328C10.536 0.179362 11.173 0.27832 11.7915 0.408203C12.4162 0.538086 13.0161 0.695801 13.5913 0.881348C14.1665 1.06071 14.7015 1.26172 15.1963 1.48438L13.9067 3.85938C13.4985 3.68001 13.0594 3.51611 12.5894 3.36768C12.1193 3.21305 11.6276 3.08008 11.1143 2.96875C10.6009 2.85742 10.069 2.77083 9.51855 2.70898C8.97428 2.64095 8.41764 2.60693 7.84863 2.60693C7.03841 2.60693 6.37044 2.66569 5.84473 2.7832C5.3252 2.90072 4.91081 3.05225 4.60156 3.23779C4.29232 3.41715 4.07585 3.62126 3.95215 3.8501C3.83464 4.07275 3.77588 4.29541 3.77588 4.51807C3.77588 4.95101 3.9707 5.30664 4.36035 5.58496C4.75 5.8571 5.34375 5.99316 6.1416 5.99316C6.46322 5.99316 6.83122 5.97152 7.24561 5.92822C7.66618 5.87874 8.10531 5.82617 8.56299 5.77051C9.02686 5.71484 9.49691 5.66536 9.97314 5.62207C10.4556 5.57259 10.9225 5.54785 11.374 5.54785C12.2275 5.54785 12.9821 5.64372 13.6377 5.83545C14.2995 6.02718 14.853 6.30241 15.2983 6.66113C15.7437 7.01367 16.0807 7.44352 16.3096 7.95068C16.5384 8.45166 16.6528 9.01449 16.6528 9.63916C16.6528 10.4741 16.458 11.2194 16.0684 11.875C15.6849 12.5244 15.1344 13.0749 14.417 13.5264C13.7057 13.9717 12.846 14.3118 11.8379 14.5469C10.8298 14.7757 9.70719 14.8901 8.47021 14.8901C7.65381 14.8901 6.85596 14.8376 6.07666 14.7324C5.29736 14.6335 4.54899 14.4912 3.83154 14.3057C3.12028 14.1139 2.43994 13.8882 1.79053 13.6284C1.1473 13.3625 0.550456 13.0718 0 12.7563L1.56787 10.3721ZM24.8354 0.185547H27.9526L34.9663 14.686H31.877L30.7173 12.2461H22.2471L21.1245 14.686H18.0259L24.8354 0.185547ZM29.5576 9.82471L26.4219 3.23779L23.3696 9.82471H29.5576ZM37.2207 0.185547H42.5366C44.089 0.185547 45.4373 0.352539 46.5815 0.686523C47.7257 1.02051 48.672 1.49984 49.4204 2.12451C50.175 2.743 50.7347 3.49756 51.0996 4.38818C51.4707 5.27262 51.6562 6.26839 51.6562 7.37549C51.6562 8.42692 51.4738 9.40104 51.1089 10.2979C50.744 11.1885 50.1873 11.9616 49.439 12.6172C48.6906 13.2666 47.7443 13.7769 46.6001 14.1479C45.4559 14.5129 44.1076 14.6953 42.5552 14.6953L37.2207 14.686V0.185547ZM43.2603 12.144C44.1385 12.144 44.9085 12.0327 45.5703 11.8101C46.2321 11.5812 46.7826 11.2596 47.2217 10.8452C47.667 10.4308 48.001 9.92985 48.2236 9.34229C48.4463 8.75472 48.5576 8.09912 48.5576 7.37549C48.5576 6.66423 48.4463 6.02409 48.2236 5.45508C48.001 4.87988 47.667 4.39437 47.2217 3.99854C46.7826 3.59652 46.2321 3.28727 45.5703 3.0708C44.9085 2.85433 44.1385 2.74609 43.2603 2.74609H40.1616V12.144H43.2603ZM59.5513 0.185547H62.6685L69.6821 14.686H66.5928L65.4331 12.2461H56.9629L55.8403 14.686H52.7417L59.5513 0.185547ZM64.2734 9.82471L61.1377 3.23779L58.0854 9.82471H64.2734ZM71.9365 0.185547H79.312C80.4253 0.185547 81.3901 0.30306 82.2065 0.538086C83.0229 0.766927 83.7002 1.10091 84.2383 1.54004C84.7764 1.97917 85.1753 2.51416 85.4351 3.14502C85.701 3.77588 85.834 4.49023 85.834 5.28809C85.834 5.82617 85.769 6.33952 85.6392 6.82812C85.5093 7.31055 85.3083 7.75586 85.0361 8.16406C84.7702 8.57227 84.4331 8.93717 84.0249 9.25879C83.6167 9.57422 83.1374 9.83708 82.5869 10.0474L85.7412 14.686H82.1416L79.4141 10.5669H79.3306L74.8774 10.5576V14.686H71.9365V0.185547ZM79.3862 8.01562C79.9429 8.01562 80.4284 7.95068 80.8428 7.8208C81.2633 7.69092 81.6128 7.50846 81.8911 7.27344C82.1756 7.03841 82.3859 6.75391 82.522 6.41992C82.6642 6.07975 82.7354 5.70247 82.7354 5.28809C82.7354 4.47786 82.457 3.85319 81.9004 3.41406C81.3438 2.96875 80.5057 2.74609 79.3862 2.74609H74.8774V8.01562H79.3862ZM88.9512 0.185547H91.9106V14.686H88.9512V0.185547Z" fill="#151515"/>
</svg>
