<svg width="120" height="25" viewBox="0 0 120 25" fill="none" xmlns="http://www.w3.org/2000/svg">
<path d="M1.875 18.8011C3.04688 19.4969 4.33593 20.0091 5.74219 20.3377C7.14843 20.6662 8.58887 20.8305 10.0635 20.8305C11.0596 20.8305 11.8896 20.7628 12.5537 20.6277C13.2178 20.4923 13.75 20.3183 14.1504 20.1058C14.5508 19.8931 14.834 19.6516 15 19.3809C15.166 19.1103 15.249 18.835 15.249 18.5547C15.249 18.1488 15.0684 17.8009 14.707 17.5109C14.3555 17.2211 13.7695 17.0761 12.9492 17.0761C12.5684 17.0761 12.1582 17.1003 11.7188 17.1486C11.2793 17.1969 10.8154 17.25 10.3272 17.308C9.84864 17.3564 9.34571 17.4047 8.81836 17.453C8.30078 17.5012 7.77344 17.5255 7.23633 17.5255C6.06445 17.5255 5.06348 17.3998 4.23339 17.1486C3.41308 16.8973 2.74415 16.5542 2.22657 16.1194C1.70899 15.6845 1.33301 15.1723 1.09863 14.5828C0.864257 13.9837 0.747071 13.341 0.747071 12.6549C0.747071 11.7851 0.952148 10.983 1.3623 10.2486C1.77246 9.51411 2.35839 8.88112 3.12011 8.34961C3.88184 7.80844 4.79981 7.38805 5.87402 7.08847C6.95801 6.78889 8.16406 6.63909 9.49219 6.63909C10.1856 6.63909 10.9082 6.68259 11.6602 6.76956C12.4219 6.84688 13.1689 6.95317 13.9014 7.08847C14.6338 7.22377 15.3369 7.38322 16.0107 7.56683C16.6846 7.74078 17.2803 7.92923 17.7979 8.13217L16.4356 11.4662C15.332 11.0603 14.2285 10.7414 13.125 10.5095C12.0312 10.2679 10.9033 10.1471 9.74121 10.1471C8.93067 10.1471 8.24218 10.2099 7.67578 10.3355C7.11914 10.4515 6.66504 10.611 6.31348 10.8139C5.96192 11.0072 5.70313 11.2343 5.53712 11.4952C5.38086 11.7465 5.30274 12.0122 5.30274 12.2925C5.30274 12.4954 5.3418 12.679 5.41993 12.8433C5.50781 13.0076 5.64453 13.1526 5.83007 13.2782C6.02539 13.3942 6.27442 13.486 6.57715 13.5536C6.88964 13.6116 7.2705 13.6406 7.71973 13.6406C8.12989 13.6406 8.56445 13.6164 9.02343 13.5681C9.48242 13.5198 9.96093 13.4715 10.459 13.4232C10.957 13.3652 11.4697 13.312 11.9971 13.2637C12.5342 13.2154 13.0811 13.1912 13.6377 13.1912C14.6729 13.1912 15.5762 13.312 16.3476 13.5536C17.1289 13.7952 17.7734 14.1335 18.2812 14.5683C18.789 15.0032 19.17 15.5154 19.4239 16.1048C19.6778 16.6944 19.8047 17.337 19.8047 18.0328C19.8047 18.9316 19.5947 19.7675 19.1747 20.5406C18.7549 21.3137 18.1299 21.9853 17.2997 22.5555C16.4697 23.1161 15.4346 23.5558 14.1943 23.8747C12.9639 24.1936 11.5381 24.353 9.91699 24.353C8.92089 24.353 7.95898 24.2902 7.03124 24.1645C6.10352 24.0486 5.21973 23.8892 4.37989 23.6862C3.54003 23.4736 2.74903 23.2272 2.00684 22.9469C1.27441 22.6667 0.60547 22.367 0 22.0481L1.875 18.8011ZM22.8955 18.6561C22.8955 17.8347 23.0762 17.0858 23.4376 16.4094C23.7988 15.7328 24.3409 15.153 25.0634 14.6698C25.7861 14.1769 26.6845 13.8 27.7588 13.5391C28.8428 13.2685 30.1025 13.1332 31.5381 13.1332C32.6026 13.1332 33.7206 13.2105 34.8925 13.3652C36.0742 13.5198 37.29 13.7566 38.5401 14.0755C38.4913 13.5343 38.3252 13.0366 38.0421 12.5824C37.7588 12.1185 37.3633 11.7223 36.8555 11.3937C36.3575 11.0555 35.7519 10.7946 35.0391 10.611C34.3359 10.4273 33.5351 10.3355 32.6367 10.3355C32.1485 10.3355 31.6113 10.3645 31.0254 10.4225C30.4394 10.4805 29.8341 10.5675 29.2089 10.6834C28.584 10.7994 27.9638 10.9444 27.3486 11.1183C26.7431 11.2923 26.1767 11.5 25.6494 11.7416L24.3311 8.21914C24.9854 7.98722 25.6836 7.77461 26.4257 7.58133C27.1778 7.38805 27.9444 7.22377 28.7256 7.08847C29.5069 6.94352 30.2882 6.83237 31.0693 6.75506C31.8505 6.67775 32.6075 6.63909 33.3398 6.63909C36.5722 6.63909 38.9746 7.4557 40.5469 9.08889C42.1192 10.7221 42.9052 13.225 42.9052 16.5978V24.0486H38.5693V22.4395C38.1201 22.7005 37.6269 22.9469 37.0898 23.1789C36.5624 23.4108 35.9863 23.6138 35.3613 23.7877C34.7364 23.9616 34.0625 24.0969 33.3398 24.1936C32.6269 24.2998 31.8701 24.353 31.0693 24.353C29.7216 24.353 28.5352 24.2081 27.5098 23.9181C26.4941 23.6283 25.6445 23.2272 24.9609 22.715C24.2774 22.2028 23.7598 21.6036 23.4082 20.9175C23.0664 20.2217 22.8955 19.468 22.8955 18.6561ZM27.4658 18.5113C27.4658 18.7914 27.5391 19.062 27.6856 19.323C27.8321 19.5742 28.0664 19.8014 28.3887 20.0042C28.7109 20.1975 29.1212 20.357 29.6192 20.4827C30.1269 20.5986 30.7374 20.6566 31.4503 20.6566C32.2119 20.6566 32.9492 20.5889 33.6621 20.4536C34.3749 20.3183 35.0391 20.1395 35.6544 19.9173C36.2695 19.695 36.8261 19.4389 37.3243 19.1491C37.8223 18.8591 38.2374 18.5595 38.5693 18.2503V17.4966C37.9053 17.3128 37.2461 17.1583 36.5918 17.0327C35.9473 16.907 35.3272 16.8103 34.7315 16.7427C34.1455 16.6655 33.5888 16.6122 33.0616 16.5833C32.544 16.5542 32.0899 16.5397 31.6993 16.5397C30.8886 16.5397 30.2149 16.593 29.6777 16.6992C29.1406 16.8055 28.7061 16.9505 28.374 17.1341C28.0419 17.308 27.8076 17.5158 27.6709 17.7573C27.5342 17.9991 27.4658 18.2503 27.4658 18.5113ZM47.3144 15.5685C47.3144 14.2059 47.5732 12.9786 48.0908 11.8866C48.6084 10.7849 49.3213 9.84752 50.2295 9.07441C51.1475 8.29163 52.2314 7.69247 53.4815 7.27692C54.7412 6.8517 56.1035 6.63909 57.5684 6.63909C58.1934 6.63909 58.8085 6.67775 59.4141 6.75506C60.0294 6.83237 60.6152 6.93869 61.1719 7.07397C61.7383 7.20927 62.2656 7.37356 62.7538 7.56683C63.252 7.75045 63.6914 7.95339 64.0723 8.17566V0H68.4082V24.0486H64.0723V22.4395C63.6914 22.7005 63.2422 22.9469 62.7246 23.1789C62.2071 23.4108 61.6503 23.6138 61.0547 23.7877C60.459 23.9616 59.8388 24.0969 59.1943 24.1936C58.5595 24.2998 57.9297 24.353 57.3047 24.353C55.8398 24.353 54.4922 24.1405 53.2617 23.7152C52.041 23.29 50.9912 22.6908 50.1123 21.9177C49.2335 21.1447 48.5449 20.2217 48.0469 19.1491C47.5585 18.0667 47.3144 16.8731 47.3144 15.5685ZM51.8702 15.5685C51.8702 16.2547 52.0069 16.9022 52.2802 17.5109C52.5635 18.1198 52.9639 18.6561 53.4815 19.12C54.0088 19.5742 54.6387 19.9366 55.3712 20.2072C56.1133 20.4681 56.9433 20.5986 57.8613 20.5986C58.4473 20.5986 59.0332 20.5455 59.6192 20.4392C60.2051 20.3231 60.7666 20.1638 61.3037 19.9608C61.8505 19.7578 62.3585 19.5114 62.8271 19.2216C63.3057 18.9316 63.7206 18.6078 64.0723 18.2503V12.3215C63.6328 11.9736 63.1689 11.6788 62.6807 11.4372C62.1924 11.1956 61.6944 10.9975 61.1866 10.8429C60.6788 10.6883 60.166 10.5771 59.6484 10.5095C59.1308 10.4322 58.6279 10.3935 58.1397 10.3935C57.1435 10.3935 56.2549 10.5288 55.4736 10.7994C54.7022 11.0603 54.0478 11.4227 53.5107 11.8866C52.9835 12.3505 52.5782 12.8965 52.2949 13.5246C52.0118 14.1528 51.8702 14.8341 51.8702 15.5685ZM72.9052 18.6561C72.9052 17.8347 73.086 17.0858 73.4473 16.4094C73.8085 15.7328 74.3506 15.153 75.0733 14.6698C75.7959 14.1769 76.6944 13.8 77.7685 13.5391C78.8525 13.2685 80.1123 13.1332 81.5479 13.1332C82.6123 13.1332 83.7305 13.2105 84.9024 13.3652C86.0841 13.5198 87.2998 13.7566 88.5497 14.0755C88.501 13.5343 88.335 13.0366 88.0517 12.5824C87.7686 12.1185 87.3731 11.7223 86.8652 11.3937C86.3672 11.0555 85.7618 10.7946 85.0489 10.611C84.3456 10.4273 83.545 10.3355 82.6465 10.3355C82.1582 10.3355 81.6212 10.3645 81.0352 10.4225C80.4493 10.4805 79.8437 10.5675 79.2188 10.6834C78.5937 10.7994 77.9736 10.9444 77.3585 11.1183C76.7529 11.2923 76.1866 11.5 75.6592 11.7416L74.3408 8.21914C74.9951 7.98722 75.6933 7.77461 76.4356 7.58133C77.1875 7.38805 77.9541 7.22377 78.7353 7.08847C79.5166 6.94352 80.2978 6.83237 81.0791 6.75506C81.8604 6.67775 82.6172 6.63909 83.3496 6.63909C86.5821 6.63909 88.9844 7.4557 90.5566 9.08889C92.1289 10.7221 92.9151 13.225 92.9151 16.5978V24.0486H88.5791V22.4395C88.1299 22.7005 87.6368 22.9469 87.0996 23.1789C86.5723 23.4108 85.9961 23.6138 85.3712 23.7877C84.7461 23.9616 84.0723 24.0969 83.3496 24.1936C82.6367 24.2998 81.88 24.353 81.0791 24.353C79.7315 24.353 78.5449 24.2081 77.5195 23.9181C76.5039 23.6283 75.6543 23.2272 74.9706 22.715C74.2871 22.2028 73.7695 21.6036 73.4179 20.9175C73.0762 20.2217 72.9052 19.468 72.9052 18.6561ZM77.4756 18.5113C77.4756 18.7914 77.5489 19.062 77.6953 19.323C77.8418 19.5742 78.0761 19.8014 78.3984 20.0042C78.7206 20.1975 79.1308 20.357 79.6288 20.4827C80.1368 20.5986 80.7471 20.6566 81.46 20.6566C82.2216 20.6566 82.959 20.5889 83.6719 20.4536C84.3848 20.3183 85.0489 20.1395 85.6641 19.9173C86.2794 19.695 86.836 19.4389 87.334 19.1491C87.8321 18.8591 88.2471 18.5595 88.5791 18.2503V17.4966C87.915 17.3128 87.2558 17.1583 86.6016 17.0327C85.9571 16.907 85.3369 16.8103 84.7412 16.7427C84.1552 16.6655 83.5986 16.6122 83.0713 16.5833C82.5537 16.5542 82.0996 16.5397 81.709 16.5397C80.8985 16.5397 80.2246 16.593 79.6876 16.6992C79.1504 16.8055 78.7159 16.9505 78.3838 17.1341C78.0518 17.308 77.8173 17.5158 77.6807 17.7573C77.544 17.9991 77.4756 18.2503 77.4756 18.5113ZM98.6572 6.94352H102.993V9.40781C103.95 8.70234 104.961 8.09352 106.025 7.58133C107.09 7.06914 108.149 6.67775 109.204 6.40717L110.478 10.3355C108.809 10.4998 107.339 10.8719 106.069 11.4517C104.81 12.0219 103.784 12.8288 102.993 13.8725V24.0486H98.6572V6.94352ZM116.001 4.60969C115.571 4.60969 115.181 4.5517 114.829 4.43573C114.487 4.31009 114.194 4.14581 113.95 3.94287C113.706 3.73027 113.516 3.48867 113.379 3.21808C113.252 2.93783 113.188 2.64308 113.188 2.33383C113.188 2.01492 113.252 1.72017 113.379 1.44958C113.516 1.16933 113.706 0.927734 113.95 0.724792C114.194 0.52185 114.487 0.362397 114.829 0.24643C115.181 0.120799 115.571 0.0579834 116.001 0.0579834C116.44 0.0579834 116.831 0.120799 117.173 0.24643C117.524 0.362397 117.822 0.52185 118.066 0.724792C118.311 0.927734 118.496 1.16933 118.623 1.44958C118.76 1.72017 118.828 2.01492 118.828 2.33383C118.828 2.64308 118.76 2.93783 118.623 3.21808C118.496 3.48867 118.311 3.73027 118.066 3.94287C117.822 4.14581 117.524 4.31009 117.173 4.43573C116.831 4.5517 116.44 4.60969 116.001 4.60969ZM113.833 6.94352H118.169V24.0486H113.833V6.94352Z" fill="#151515"/>
</svg>
