<svg width="12" height="12" viewBox="0 0 12 12" fill="none" xmlns="http://www.w3.org/2000/svg">
<path d="M10.88 7.96L7.67999 2.2C7.24999 1.425 6.65499 1 5.99999 1C5.34499 1 4.74999 1.425 4.31999 2.2L1.11999 7.96C0.714989 8.695 0.669989 9.4 0.994989 9.955C1.31999 10.51 1.95999 10.815 2.79999 10.815H9.19999C10.04 10.815 10.68 10.51 11.005 9.955C11.33 9.4 11.285 8.69 10.88 7.96ZM5.62499 4.5C5.62499 4.295 5.79499 4.125 5.99999 4.125C6.20499 4.125 6.37499 4.295 6.37499 4.5V7C6.37499 7.205 6.20499 7.375 5.99999 7.375C5.79499 7.375 5.62499 7.205 5.62499 7V4.5ZM6.35499 8.855C6.32999 8.875 6.30499 8.895 6.27999 8.915C6.24999 8.935 6.21999 8.95 6.18999 8.96C6.15999 8.975 6.12999 8.985 6.09499 8.99C6.06499 8.995 6.02999 9 5.99999 9C5.96999 9 5.93499 8.995 5.89999 8.99C5.86999 8.985 5.83999 8.975 5.80999 8.96C5.77999 8.95 5.74999 8.935 5.71999 8.915C5.69499 8.895 5.66999 8.875 5.64499 8.855C5.55499 8.76 5.49999 8.63 5.49999 8.5C5.49999 8.37 5.55499 8.24 5.64499 8.145C5.66999 8.125 5.69499 8.105 5.71999 8.085C5.74999 8.065 5.77999 8.05 5.80999 8.04C5.83999 8.025 5.86999 8.015 5.89999 8.01C5.96499 7.995 6.03499 7.995 6.09499 8.01C6.12999 8.015 6.15999 8.025 6.18999 8.04C6.21999 8.05 6.24999 8.065 6.27999 8.085C6.30499 8.105 6.32999 8.125 6.35499 8.145C6.44499 8.24 6.49999 8.37 6.49999 8.5C6.49999 8.63 6.44499 8.76 6.35499 8.855Z" fill="#FF9A9C"/>
</svg>
