<svg width="34" height="34" viewBox="0 0 34 34" fill="none" xmlns="http://www.w3.org/2000/svg">
<circle cx="17" cy="17" r="17" fill="#E5E5E5"/>
<path d="M23.7192 21.3542C23.5726 21.3542 23.4351 21.3083 23.3067 21.2167C23.0042 20.9875 22.9401 20.5567 23.1692 20.2542C24.6084 18.3383 24.6084 15.6617 23.1692 13.7458C22.9401 13.4433 23.0042 13.0125 23.3067 12.7833C23.6092 12.5542 24.0401 12.6183 24.2692 12.9208C26.0751 15.3225 26.0751 18.6775 24.2692 21.0792C24.1409 21.2625 23.9301 21.3542 23.7192 21.3542Z" fill="#878787"/>
<path d="M20.0708 9.46501C19.0442 8.89668 17.7333 9.04334 16.395 9.87751L13.7183 11.555C13.535 11.665 13.3242 11.7292 13.1133 11.7292H12.2608H11.8025C9.58416 11.7292 8.36499 12.9483 8.36499 15.1667V18.8333C8.36499 21.0517 9.58416 22.2708 11.8025 22.2708H12.2608H13.1133C13.3242 22.2708 13.535 22.335 13.7183 22.445L16.395 24.1225C17.2017 24.6267 17.99 24.8742 18.7233 24.8742C19.2 24.8742 19.6583 24.7642 20.0708 24.535C21.0883 23.9667 21.6567 22.7842 21.6567 21.2075V12.7925C21.6567 11.2158 21.0883 10.0333 20.0708 9.46501Z" fill="#878787"/>
</svg>
